<svg xmlns="http://www.w3.org/2000/svg" xmlns:xlink="http://www.w3.org/1999/xlink" viewBox="0 0 416 247.25"><defs><style>.cls-1{fill:url(#Sfumatura_senza_nome_13);}.cls-2{fill:url(#Sfumatura_senza_nome_268);}.cls-3{fill:url(#Sfumatura_senza_nome_340);}.cls-4{fill:#009fe3;}.cls-5{fill:url(#Sfumatura_senza_nome_341);}.cls-6{fill:url(#Sfumatura_senza_nome_341-2);}</style><linearGradient id="Sfumatura_senza_nome_13" x1="236.01" y1="51.2" x2="236.01" y2="179.19" gradientUnits="userSpaceOnUse"><stop offset="0" stop-color="#05749c"/><stop offset="0.1" stop-color="#0479a4"/><stop offset="0.7" stop-color="#0194d1"/><stop offset="1" stop-color="#009fe3"/></linearGradient><linearGradient id="Sfumatura_senza_nome_268" x1="2.39" y1="33.07" x2="161.61" y2="34.32" gradientUnits="userSpaceOnUse"><stop offset="0" stop-color="#009fe3"/><stop offset="1" stop-color="#05749c"/></linearGradient><linearGradient id="Sfumatura_senza_nome_340" x1="174.38" y1="40.13" x2="33.27" y2="182.48" gradientUnits="userSpaceOnUse"><stop offset="0" stop-color="#009fe3"/><stop offset="0.3" stop-color="#0095d1"/><stop offset="0.65" stop-color="#0087b8"/><stop offset="1" stop-color="#05749c"/></linearGradient><linearGradient id="Sfumatura_senza_nome_341" x1="214.83" y1="247.69" x2="386.54" y2="139.05" gradientUnits="userSpaceOnUse"><stop offset="0" stop-color="#009fe3"/><stop offset="0.3" stop-color="#0194d1"/><stop offset="0.9" stop-color="#0479a4"/><stop offset="1" stop-color="#05749c"/></linearGradient><linearGradient id="Sfumatura_senza_nome_341-2" x1="15.57" y1="215.09" x2="218.49" y2="210.09" xlink:href="#Sfumatura_senza_nome_341"/></defs><title>ZD - sfumatura</title><g id="ESPORTAZIONE"><polygon class="cls-1" points="269.73 72.75 269.73 178.84 268.12 179.82 202.29 179.82 202.29 33.72 260.54 67.43 269.73 72.75"/><polygon class="cls-2" points="168.58 0 105.37 67.43 0 67.43 0 0 168.58 0"/><polygon class="cls-3" points="179.82 67.43 81.48 179.82 0 179.82 105.37 67.43 168.58 0 179.82 67.43"/><polygon class="cls-4" points="415.83 89.91 415.83 157.34 359.05 124.47 269.73 72.75 260.54 67.43 202.29 33.72 269.73 0 415.83 89.91"/><polyline class="cls-5" points="359.05 124.47 415.83 157.34 269.73 247.25 157.34 247.25 359.64 123.63"/><polyline class="cls-6" points="157.34 247.25 22.48 247.25 0 179.82 268.12 179.82"/></g></svg>